<?xml version="1.0" standalone="no"?><!DOCTYPE svg PUBLIC "-//W3C//DTD SVG 1.1//EN" "http://www.w3.org/Graphics/SVG/1.1/DTD/svg11.dtd"><svg t="1710299729896" class="icon" viewBox="0 0 1024 1024" version="1.1" xmlns="http://www.w3.org/2000/svg" p-id="17152" xmlns:xlink="http://www.w3.org/1999/xlink" width="200" height="200"><path d="M837.657425 878.783306v108.862625c0 32.565743-38.520621 48.848614-61.084028 25.819982l-125.564199-128.122936H558.522489a186.089957 186.089957 0 0 1-186.089957-186.089957V558.522489a186.089957 186.089957 0 0 1 186.089957-186.089957h232.612447a186.043435 186.043435 0 0 1 186.043435 186.089957v140.730531A185.624733 185.624733 0 0 1 837.657425 878.783306z" fill="#FF8415" p-id="17153"></path><path d="M732.5166 791.321026l-6.559671-57.594842H620.862625l-29.262646 57.594842h-61.549253l169.341861-315.236388h45.77813l45.871174 315.236388H732.5166z m-25.726937-226.704091l-62.386658 121.330653h77.227332l-14.840674-121.330653z" fill="#FFFFFF" p-id="17154"></path><path d="M372.432532 605.044979h-46.010742l-125.517676 127.8438c-22.516885 23.028632-61.084029 6.745761-61.084029-25.773459v-127.890323C84.458323 546.93839 46.775106 487.622216 46.775106 418.955021V186.342575a186.089957 186.089957 0 0 1 186.089958-186.089958h139.567468a186.089957 186.089957 0 0 1 186.089957 186.089958v232.612446a186.089957 186.089957 0 0 1-186.089957 186.089958z" fill="#307CFB" p-id="17155"></path><path d="M412.116215 302.69532c-10.374515 56.199167-18.190293 89.927972-39.404548 117.376241l21.214255 29.169601-34.147507 31.495725-22.516885-31.0305a118.771915 118.771915 0 0 1-58.385724 15.724601c-58.339202 0-92.486709-41.358493-92.486709-90.811899 0-14.375449 2.977439-35.961884 9.444065-71.923769 11.723667-61.549253 19.911625-97.976363 47.173805-126.308558a121.749355 121.749355 0 0 1 85.60138-36.427109c58.432247 0 92.998456 41.358493 92.998456 90.811899 0 14.375449-3.023962 35.961884-9.490588 71.923768zM324.74698 192.111363a55.826987 55.826987 0 0 0-41.963285 19.353356c-11.677145 13.026297-18.562473 31.867905-29.820916 91.230601-5.163996 27.448269-9.118408 51.686486-9.118408 67.45761 0 28.285674 18.655518 43.17287 39.404549 43.17287 8.187958 0 16.003736-2.326124 22.470362-6.327058l-22.470362-30.100051 34.566209-31.495725 19.027699 25.633891c6.513149-13.491522 11.677145-32.844877 18.190293-68.341537 5.163996-27.401746 8.653183-51.639963 8.653183-67.411087 0-28.332196-18.143771-43.17287-38.939324-43.17287z" fill="#FFFFFF" p-id="17156"></path></svg>