<?xml version="1.0" standalone="no"?><!DOCTYPE svg PUBLIC "-//W3C//DTD SVG 1.1//EN" "http://www.w3.org/Graphics/SVG/1.1/DTD/svg11.dtd"><svg  fill="#8f1aff" t="1711419726964" class="icon" viewBox="0 0 1024 1024" version="1.1" xmlns="http://www.w3.org/2000/svg" p-id="5259" xmlns:xlink="http://www.w3.org/1999/xlink" width="200" height="200"><path d="M487.862857 73.3184c121.899886 0 238.445714 49.839543 322.325943 137.947429a441.490286 441.490286 0 0 1 121.314743 327.914057c-115.4048-75.849143-269.063314-54.901029-359.936 49.064228-90.667886 103.789714-90.024229 258.794057 1.477486 361.837715A445.059657 445.059657 0 0 1 135.767771 783.872 441.022171 441.022171 0 0 1 90.667886 319.780571 444.357486 444.357486 0 0 1 487.979886 73.142857l-0.058515 0.175543h-0.058514z m-0.482743 138.415543l-8.426057 0.585143c-21.386971 2.633143-33.28 15.798857-35.649828 39.511771l-0.4096 9.333029-0.058515 207.915885h-131.466971c-33.499429 0-51.682743 12.244114-54.652343 36.717715l-0.482743 7.723885 0.482743 7.606858c2.735543 22.030629 17.759086 34.143086 45.143771 36.278857l9.508572 0.365714h165.449143c2.311314 0 4.564114 0 6.7584-0.175543l3.803428 0.175543 8.4992-0.482743c14.379886-1.770057 24.4736-8.367543 30.237257-19.719314a42.422857 42.422857 0 0 0 5.412572-17.217829l0.351086-6.904685-0.175543-2.369829 0.175543-2.735543V261.2224c0-32.9728-14.848-49.488457-44.558629-49.488457h0.058514z" p-id="5260"></path><path d="M782.277486 576.248686a194.852571 194.852571 0 0 1 168.6528 96.943543 193.360457 193.360457 0 0 1 0 194.018742 194.852571 194.852571 0 0 1-168.711315 97.016686A194.369829 194.369829 0 0 1 587.483429 770.194286a194.369829 194.369829 0 0 1 194.794057-193.974857z m83.119543 113.722514a29.257143 29.257143 0 0 0-41.354972 1.4336l-41.647543 44.6464-40.155428-43.051886a29.257143 29.257143 0 0 0-42.788572 39.906743l42.949486 46.050743-38.078171 40.842971a29.257143 29.257143 0 1 0 42.8032 39.906743l35.254857-37.858743 36.790857 39.438629a29.257143 29.257143 0 1 0 42.788571-39.906743l-39.555657-42.422857 44.4416-47.645257a29.257143 29.257143 0 0 0-1.462857-41.340343z" p-id="5261"></path></svg>