<?xml version="1.0" standalone="no"?><!DOCTYPE svg PUBLIC "-//W3C//DTD SVG 1.1//EN" "http://www.w3.org/Graphics/SVG/1.1/DTD/svg11.dtd"><svg fill='#fba240' t="1711419978795" class="icon" viewBox="0 0 1093 1024" version="1.1" xmlns="http://www.w3.org/2000/svg" p-id="30193" xmlns:xlink="http://www.w3.org/1999/xlink" width="213.4765625" height="200"><path d="M748.819181 190.273726q-10.22977 0-17.902098-7.160839t-12.787213-17.390609-7.672328-20.971029-2.557443-17.902098l0-126.849151 2.045954 0q8.183816 0 16.879121 2.557443t20.45954 9.718282 28.643357 20.971029 42.453546 36.315684q27.62038 24.551449 43.476523 41.942058t24.551449 29.154845 10.741259 19.948052 2.045954 14.321678l0 15.344655-150.377622 0zM867.484515 573.89011q47.056943 0 87.976024 17.390609t71.608392 48.07992 48.07992 71.608392 17.390609 87.976024-17.390609 87.976024-48.07992 71.608392-71.608392 48.07992-87.976024 17.390609q-46.033966 0-86.953047-17.390609t-71.608392-48.07992-48.591409-71.608392-17.902098-87.976024 17.902098-87.976024 48.591409-71.608392 71.608392-48.07992 86.953047-17.390609zM995.356643 834.749251q9.206793 0 16.367632-10.22977t7.160839-24.551449-7.160839-24.551449-16.367632-10.22977l-97.182817 0 0-90.021978q0-8.183816-8.695305-14.321678t-24.03996-6.137862-23.016983 6.137862-7.672328 14.321678l0 112.527473q-2.045954 8.183816-2.045954 12.275724 0 14.321678 7.160839 24.551449t16.367632 10.22977l139.124875 0zM575.936064 768.255744q-1.022977 7.160839-1.022977 14.321678l0 15.344655q0 46.033966 13.298701 86.953047t36.827173 76.723277l-362.133866 0q-19.436563 0-42.453546-11.252747t-42.965035-29.666334-33.246753-41.942058-13.298701-49.102897l0-697.67033q0-21.482517 10.22977-44.4995t26.597403-42.453546 37.85015-32.223776 45.010989-12.787213l391.8002 0 0 127.872128q0 20.45954 6.137862 42.453546t19.436563 41.430569 33.758242 31.712288 48.07992 12.275724l149.354645 0 0 254.721279q-8.183816-2.045954-17.390609-2.045954l-18.413586 0q-76.723277 0-140.147852 35.804196t-102.297702 96.15984l-297.686314 0q-26.597403 0-45.522478 18.413586t-18.925075 45.010989 18.925075 45.522478 45.522478 18.925075l252.675325 0zM323.260739 383.616384q-26.597403 0-45.522478 18.925075t-18.925075 45.522478 18.925075 45.010989 45.522478 18.413586l383.616384 0q26.597403 0 45.010989-18.413586t18.413586-45.010989-18.413586-45.522478-45.010989-18.925075l-383.616384 0z" p-id="30194"></path></svg>