<?xml version="1.0" standalone="no"?><!DOCTYPE svg PUBLIC "-//W3C//DTD SVG 1.1//EN" "http://www.w3.org/Graphics/SVG/1.1/DTD/svg11.dtd"><svg fill="#8f1aff" t="1711420266248" class="icon" viewBox="0 0 1024 1024" version="1.1" xmlns="http://www.w3.org/2000/svg" p-id="48449" xmlns:xlink="http://www.w3.org/1999/xlink" width="200" height="200"><path d="M495.151943 0C271.681131 0 89.893993 181.787138 89.893993 405.257951s181.787138 405.257951 405.25795 405.25795 405.257951-181.787138 405.257951-405.25795-181.787138-405.257951-405.257951-405.257951z m131.274629 578.939929H668.833922c16.007689 0 28.946996 12.939307 28.946997 28.946997s-12.939307 28.946996-28.946997 28.946996h-57.893993-0.057894c-3.415746-0.028947-6.773597-0.810516-10.01566-2.026289-0.636834-0.231576-1.302615-0.434205-1.910502-0.723675a27.045541 27.045541 0 0 1-7.960424-5.384142c-0.492099-0.463152-0.810516-0.955251-1.273668-1.44735-0.955251-1.071039-2.02629-2.055237-2.865753-3.299957L479.694247 463.151943H408.310954v115.787986h28.946997c15.978742 0 28.946996 12.939307 28.946996 28.946997s-12.968254 28.946996-28.946996 28.946996H321.469965c-15.978742 0-28.946996-12.939307-28.946997-28.946996s12.968254-28.946996 28.946997-28.946997h28.946996V318.416961c0-15.978742 12.968254-28.946996 28.946997-28.946996s28.946996 12.968254 28.946996 28.946996v86.84099h144.734982c47.878332 0 86.840989-38.962657 86.84099-86.84099s-38.962657-86.840989-86.84099-86.840989H321.469965c-15.978742 0-28.946996-12.968254-28.946997-28.946997s12.968254-28.946996 28.946997-28.946996h231.575971c79.806869 0 144.734982 64.928113 144.734983 144.734982s-64.928113 144.734982-144.734983 144.734982h-3.792056l77.172692 115.787986z" p-id="48450"></path></svg>