<?xml version="1.0" standalone="no"?><!DOCTYPE svg PUBLIC "-//W3C//DTD SVG 1.1//EN" "http://www.w3.org/Graphics/SVG/1.1/DTD/svg11.dtd"><svg fill='#fba240' t="1711420114961" class="icon" viewBox="0 0 1024 1024" version="1.1" xmlns="http://www.w3.org/2000/svg" p-id="38267" xmlns:xlink="http://www.w3.org/1999/xlink" width="200" height="200"><path d="M425.653 72.303c-222.386 0-352.569 55.342-352.569 123.684v74.128c0 68.34 130.082 123.785 352.569 123.785 222.581 0 377.844-55.445 377.844-123.785v-74.128c0-68.443-155.262-123.684-377.844-123.684zM394.48 713.958c-160.039-5.688-253.563-40.211-302.61-86.62-12.693 11.984-18.786 24.471-18.786 37.471v100.023c0 69.052 136.174 124.902 369.325 124.902 23.253 0 46-0.71 68.333-1.828A273.084 273.084 0 0 1 394.48 713.958z m57.981-250.091l-14.926 0.102c-187.251 0-292.758-37.065-345.867-88.142-12.491 11.981-18.583 24.675-18.583 37.774v100.734c0 63.854 114.951 116.761 313.677 124.68a268.74 268.74 0 0 1 65.7-175.148z m482.744 404.846s-161.257-148.461-132.113-124.8c-16.857 26.1-61.538 41.432-87.429 58.39-34.73-33.408 153.434 132.519 153.434 132.519 18.513 16.61 46.781 15.845 64.365-1.743 17.59-17.585 18.353-45.854 1.743-64.366z" p-id="38268"></path><path d="M855.693 761.28l-0.203-0.205c43.55-67.426 46.834-153.241 8.56-223.795-38.268-70.535-111.993-114.58-192.256-114.844-118.485 3.606-212.659 100.699-212.659 219.22 0 118.54 94.174 215.633 212.659 219.24 44.072 0 84.891-13.1 119.417-35.541l0.202 0.303c25.593-16.755 47.425-38.588 64.28-64.379z m-183.9 41.428c-88.92 0-161.002-72.08-161.002-161.002 0-88.92 72.083-160.983 161.003-160.983 88.65 0 160.85 72.282 160.85 160.932 0 88.853-72.2 161.053-160.85 161.053z" p-id="38269"></path></svg>